<svg width="200" height="120" viewBox="0 0 200 120" fill="none" xmlns="http://www.w3.org/2000/svg">
  <!-- Buildings Group -->
  <g transform="translate(20, 20)">
    
    <!-- Base/Ground Line -->
    <rect x="0" y="68" width="160" height="3" fill="#333333" rx="1.5"/>
    
    <!-- Left Building -->
    <rect x="15" y="38" width="20" height="30" fill="#CDA274"/>
    <!-- Left building windows -->
    <rect x="17" y="42" width="3" height="22" fill="#F4F0EC"/>
    <rect x="22" y="42" width="3" height="22" fill="#F4F0EC"/>
    <rect x="27" y="42" width="3" height="22" fill="#F4F0EC"/>
    
    <!-- Main Center Building (Tallest) -->
    <rect x="40" y="15" width="25" height="53" fill="#333333"/>
    
    <!-- Center building horizontal lines -->
    <rect x="42" y="18" width="4" height="1.5" fill="white"/>
    <rect x="48" y="18" width="4" height="1.5" fill="white"/>
    <rect x="54" y="18" width="4" height="1.5" fill="white"/>
    <rect x="60" y="18" width="3" height="1.5" fill="white"/>
    
    <rect x="42" y="22" width="4" height="1.5" fill="white"/>
    <rect x="48" y="22" width="4" height="1.5" fill="white"/>
    <rect x="54" y="22" width="4" height="1.5" fill="white"/>
    <rect x="60" y="22" width="3" height="1.5" fill="white"/>
    
    <rect x="42" y="26" width="4" height="1.5" fill="white"/>
    <rect x="48" y="26" width="4" height="1.5" fill="white"/>
    <rect x="54" y="26" width="4" height="1.5" fill="white"/>
    <rect x="60" y="26" width="3" height="1.5" fill="white"/>
    
    <rect x="42" y="30" width="4" height="1.5" fill="white"/>
    <rect x="48" y="30" width="4" height="1.5" fill="white"/>
    <rect x="54" y="30" width="4" height="1.5" fill="white"/>
    <rect x="60" y="30" width="3" height="1.5" fill="white"/>
    
    <rect x="42" y="34" width="4" height="1.5" fill="white"/>
    <rect x="48" y="34" width="4" height="1.5" fill="white"/>
    <rect x="54" y="34" width="4" height="1.5" fill="white"/>
    <rect x="60" y="34" width="3" height="1.5" fill="white"/>
    
    <rect x="42" y="38" width="4" height="1.5" fill="white"/>
    <rect x="48" y="38" width="4" height="1.5" fill="white"/>
    <rect x="54" y="38" width="4" height="1.5" fill="white"/>
    <rect x="60" y="38" width="3" height="1.5" fill="white"/>
    
    <rect x="42" y="42" width="4" height="1.5" fill="white"/>
    <rect x="48" y="42" width="4" height="1.5" fill="white"/>
    <rect x="54" y="42" width="4" height="1.5" fill="white"/>
    <rect x="60" y="42" width="3" height="1.5" fill="white"/>
    
    <rect x="42" y="46" width="4" height="1.5" fill="white"/>
    <rect x="48" y="46" width="4" height="1.5" fill="white"/>
    <rect x="54" y="46" width="4" height="1.5" fill="white"/>
    <rect x="60" y="46" width="3" height="1.5" fill="white"/>
    
    <rect x="42" y="50" width="4" height="1.5" fill="white"/>
    <rect x="48" y="50" width="4" height="1.5" fill="white"/>
    <rect x="54" y="50" width="4" height="1.5" fill="white"/>
    <rect x="60" y="50" width="3" height="1.5" fill="white"/>
    
    <rect x="42" y="54" width="4" height="1.5" fill="white"/>
    <rect x="48" y="54" width="4" height="1.5" fill="white"/>
    <rect x="54" y="54" width="4" height="1.5" fill="white"/>
    <rect x="60" y="54" width="3" height="1.5" fill="white"/>
    
    <rect x="42" y="58" width="4" height="1.5" fill="white"/>
    <rect x="48" y="58" width="4" height="1.5" fill="white"/>
    <rect x="54" y="58" width="4" height="1.5" fill="white"/>
    <rect x="60" y="58" width="3" height="1.5" fill="white"/>
    
    <rect x="42" y="62" width="4" height="1.5" fill="white"/>
    <rect x="48" y="62" width="4" height="1.5" fill="white"/>
    <rect x="54" y="62" width="4" height="1.5" fill="white"/>
    <rect x="60" y="62" width="3" height="1.5" fill="white"/>
    
    <!-- Center building angular side -->
    <path d="M65 18 L78 25 L78 68 L65 68 Z" fill="#444444"/>
    
    <!-- Angular side details -->
    <path d="M67 22 L76 27 L76 29 L67 25 Z" fill="white"/>
    <path d="M67 28 L76 33 L76 35 L67 31 Z" fill="white"/>
    <path d="M67 34 L76 39 L76 41 L67 37 Z" fill="white"/>
    <path d="M67 40 L76 45 L76 47 L67 43 Z" fill="white"/>
    <path d="M67 46 L76 51 L76 53 L67 49 Z" fill="white"/>
    <path d="M67 52 L76 57 L76 59 L67 55 Z" fill="white"/>
    <path d="M67 58 L76 63 L76 65 L67 61 Z" fill="white"/>
    
    <!-- Right Building -->
    <rect x="85" y="28" width="22" height="40" fill="#CDA274"/>
    <!-- Right building windows -->
    <rect x="87" y="32" width="3" height="32" fill="#F4F0EC"/>
    <rect x="92" y="32" width="3" height="32" fill="#F4F0EC"/>
    <rect x="97" y="32" width="3" height="32" fill="#F4F0EC"/>
    <rect x="102" y="32" width="3" height="32" fill="#F4F0EC"/>
    
  </g>
  
  <!-- Company Name Text -->
  <g transform="translate(100, 85)">
    <!-- SONIA'S -->
    <text x="0" y="0" font-family="Arial, sans-serif" font-size="14" font-weight="bold" text-anchor="middle" fill="#333333">SONIA'S</text>
    <!-- REALTY MEDIA -->
    <text x="0" y="15" font-family="Arial, sans-serif" font-size="8" font-weight="normal" text-anchor="middle" fill="#666666" letter-spacing="1px">REALTY MEDIA</text>
  </g>
</svg>
